<svg width="32" height="32" viewBox="0 0 32 32" fill="none" xmlns="http://www.w3.org/2000/svg">
<circle cx="16" cy="16" r="16" fill="#8DC351"/>
<path fill-rule="evenodd" clip-rule="evenodd" d="M21.2138 10.6109C20.413 8.62086 18.511 8.52136 16.2086 8.91937L15.4077 6.1333L13.706 6.63081L14.5068 9.31738C14.3446 9.35769 14.1659 9.41433 13.9775 9.47407L13.9775 9.47407L13.9775 9.47407C13.7008 9.5618 13.4031 9.6562 13.1053 9.71539L12.3045 6.92932L10.6027 7.42683L11.4036 10.2129C11.2033 10.2627 11.0282 10.3124 10.853 10.3622C10.6778 10.4119 10.5026 10.4617 10.3024 10.5114L8 11.3074L8.50052 13.0985C8.50052 13.0985 9.80188 12.7005 9.70178 12.7005C10.4025 12.5015 10.7028 12.8 10.903 13.198L11.804 16.3821H12.0042L11.804 16.4816L13.1053 20.9592C13.1053 21.1582 13.1053 21.5562 12.6048 21.7552L11.4036 22.1532L11.6038 24.2427L13.8061 23.6457L15.0073 23.3472L15.8082 26.1333L17.5099 25.6358L16.7091 22.8497C17.2096 22.7502 17.61 22.6507 18.1106 22.4517L18.9114 25.2378L20.6132 24.7403L19.8123 21.9542C22.6153 20.9592 24.4172 19.6656 23.9166 16.8796C23.5162 14.6905 22.2149 13.994 20.413 14.0935C21.414 13.0985 21.8144 12.1034 21.2138 10.6109ZM20.6133 17.377C21.1428 19.219 18.3273 20.0558 16.8298 20.5009C16.6286 20.5607 16.4511 20.6135 16.3088 20.6606L15.2076 16.8795C15.3655 16.8403 15.5632 16.7821 15.789 16.7157C17.2814 16.2767 20.0047 15.4757 20.6133 17.377ZM14.9858 15.1079C16.1827 14.7698 18.7627 14.041 18.2104 12.3024C17.7576 10.5022 15.2567 11.3076 14.0428 11.6986C13.9148 11.7398 13.8011 11.7764 13.7057 11.8049L14.7067 15.188C14.7872 15.164 14.8812 15.1374 14.9858 15.1079Z" fill="white"/>
</svg>
