<svg width="32" height="32" viewBox="0 0 32 32" fill="none" xmlns="http://www.w3.org/2000/svg">
<path d="M16 0C24.8374 0 32 7.16407 32 16C32 24.8374 24.8374 32 16 32C7.16407 32 0 24.8366 0 16C0 7.16407 7.16407 0 16 0Z" fill="#F5AC37"/>
<path fill-rule="evenodd" clip-rule="evenodd" d="M8.38024 24.8202V24.88L8.37736 24.8821V24.8922H15.3175C16.103 24.903 16.8857 24.8404 17.6575 24.7021C18.4704 24.543 19.2624 24.2925 20.0177 23.9526C20.3452 23.8009 20.6594 23.6176 20.9764 23.4327C21.0567 23.3858 21.1371 23.3389 21.218 23.2924C21.5909 23.0267 21.948 22.7387 22.2879 22.4327C23.2181 21.5917 23.9382 20.5427 24.3882 19.3726C24.4184 19.2416 24.5466 19.1574 24.6783 19.1826H26.5683C26.7188 19.1826 26.7685 19.1322 26.7685 18.9622V17.7519C26.7786 17.636 26.7786 17.5186 26.7685 17.4027C26.7685 17.3724 26.7763 17.3422 26.7841 17.312C26.7996 17.2519 26.815 17.1919 26.7685 17.132H25.1895C24.9987 17.132 24.9987 17.1118 24.9987 16.9419C25.0534 16.3328 25.0534 15.7215 24.9987 15.1124C24.9886 14.9324 25.029 14.9324 25.1686 14.9324H26.5489C26.7095 14.9324 26.7692 14.892 26.7692 14.7322V13.092C26.7642 12.9834 26.7617 12.9283 26.7329 12.9004C26.7033 12.8717 26.6459 12.8717 26.5295 12.8717H24.7395C24.5998 12.8955 24.4659 12.8011 24.4407 12.6615C24.2355 12.1251 23.9741 11.6117 23.6595 11.1314C23.3427 10.6577 22.9856 10.2127 22.5896 9.80159C22.0632 9.27598 21.4721 8.8195 20.8299 8.4415C19.8615 7.87917 18.8023 7.48533 17.7 7.28156C17.165 7.18292 16.6243 7.12316 16.08 7.10156H8.5804C8.38024 7.10156 8.38024 7.14188 8.38024 7.30172V12.6917C8.38024 12.8818 8.33992 12.8818 8.19015 12.8818H6.04021C5.88037 12.8818 5.88037 12.9113 5.88037 13.0215V14.7812C5.88037 14.941 5.93005 14.941 6.05029 14.941H8.22039C8.38024 14.941 8.38024 14.9705 8.38024 15.0908V16.9707C8.38024 17.1406 8.32984 17.1406 8.20023 17.1406H5.88037V19.0407C5.88037 19.2006 5.93005 19.2006 6.05029 19.2006H8.22039C8.38024 19.2006 8.38024 19.22 8.38024 19.3503V21.7004V22.4903V24.8202ZM22.1908 12.7104C22.2081 12.755 22.2081 12.8047 22.1908 12.8501H22.2391C22.2189 12.9098 22.1188 12.93 22.1188 12.93H10.5793C10.3892 12.93 10.3892 12.8897 10.3892 12.7399V9.19027C10.3892 9.05995 10.4094 9.00019 10.5591 9.00019H15.9289C16.5006 8.99515 17.0709 9.05491 17.6289 9.18019C18.7348 9.44227 19.7637 9.96356 20.6291 10.7001C20.8019 10.829 20.956 10.9809 21.0892 11.1501C21.3715 11.4302 21.6192 11.742 21.8294 12.0804C21.9691 12.2784 22.0893 12.4893 22.1908 12.7104ZM22.6693 17.1298H16.5896H10.6294C10.3896 17.1298 10.3896 17.1298 10.3896 16.9001V15.1203C10.3896 14.9799 10.4299 14.9302 10.5797 14.9302H22.6794C22.8097 14.9302 22.8695 14.9799 22.8695 15.1001C22.9192 15.7193 22.9192 16.3414 22.8695 16.9599C22.8601 17.1298 22.7989 17.1298 22.6693 17.1298ZM22.1905 19.2099C22.0206 19.1912 21.8492 19.1912 21.6793 19.2099H10.5898C10.44 19.2099 10.3896 19.2099 10.3896 19.4101V22.8805C10.3896 23.0404 10.3896 23.0807 10.5898 23.0807H15.7097C15.9545 23.0994 16.1993 23.0821 16.4391 23.031C17.1821 22.9777 17.913 22.8164 18.6099 22.5507C18.8634 22.4629 19.1082 22.3484 19.3393 22.2109H19.4091C20.6094 21.5867 21.5843 20.606 22.1992 19.4022C22.1992 19.4022 22.269 19.251 22.1905 19.2114V19.2099Z" fill="#FEFEFD"/>
</svg>
