<svg width="32" height="32" viewBox="0 0 32 32" fill="none" xmlns="http://www.w3.org/2000/svg">
<circle cx="16.1331" cy="15.8668" r="14.2667" fill="white"/>
<path fill-rule="evenodd" clip-rule="evenodd" d="M0 16C0 7.16344 7.16341 0 15.9999 0H16.0929C20.324 0.0123117 24.377 1.70494 27.3601 4.70553C30.3432 7.70611 32.0122 11.7689 31.9999 16C31.9999 24.8365 24.8364 32 15.9999 32C7.16341 32 0 24.8365 0 16ZM14.6052 22.1598L16.271 16.5424L18.8667 15.8063L19.409 13.9467L16.8521 14.7216L19.564 5.50123V5.35401C19.5599 5.2348 19.5087 5.12209 19.4215 5.0407C19.3343 4.95931 19.2183 4.91593 19.0991 4.92011H15.6512C15.3826 4.91183 15.1429 5.0876 15.0701 5.34626L11.8546 16.2712L9.29769 17.046L8.71658 18.8281L11.2735 18.0533L8.98776 25.8402H22.6245C22.894 25.8514 23.1353 25.6744 23.2056 25.4141L23.9804 22.7409V22.5937C23.9764 22.4745 23.9251 22.3618 23.8379 22.2804C23.7507 22.199 23.6347 22.1556 23.5155 22.1598H14.6052Z" fill="#345D9D"/>
</svg>
