<svg width="32" height="32" viewBox="0 0 32 32" fill="none" xmlns="http://www.w3.org/2000/svg">
<circle cx="16" cy="16" r="16" fill="white"/>
<path d="M32.0005 15.9984C32.0005 24.8338 24.8385 31.9968 16.0025 31.9968C7.16656 31.9968 0.00463867 24.8338 0.00463867 15.9984C0.00463867 7.16302 7.16673 0 16.0025 0C24.8384 0 32.0005 7.16234 32.0005 15.9984Z" fill="white"/>
<path d="M16.0023 0C7.16948 0 -0.00512782 7.17316 0.00611671 15.9979C0.00833155 17.7635 0.289871 19.4618 0.818279 21.0505H5.6047V7.59219L16.0023 17.9897L26.3994 7.59219V21.0507H31.1869C31.7161 19.4622 31.9961 17.7638 31.9993 15.9982C32.0144 7.16422 24.8361 0.00212965 16.0023 0.00212965V0Z" fill="#F26822"/>
<path d="M13.611 20.3801L9.07337 15.8423V24.311H5.60418L2.33057 24.3116C5.13855 28.9184 10.2132 32.0001 16.0021 32.0001C21.791 32.0001 26.866 28.9177 29.6745 24.3109H22.9299V15.8423L18.392 20.3801L16.0016 22.7705L13.6111 20.3801H13.611Z" fill="#4D4D4D"/>
</svg>
