<svg width="32" height="32" viewBox="0 0 32 32" fill="none" xmlns="http://www.w3.org/2000/svg">
<circle cx="16" cy="16" r="16" fill="white"/>
<path d="M10.1816 23.4723C10.5695 23.9229 11.2483 24.596 12.2693 25.1379C13.4558 25.7653 14.551 25.9136 15.1784 25.9536C15.5492 25.9365 16.1538 25.868 16.8326 25.5657C17.5114 25.2634 17.9677 24.8641 18.2301 24.596C18.5153 24.3393 18.9317 23.9743 19.4451 23.5407C20.5802 22.571 21.162 22.0805 21.8294 21.6299C22.1717 21.396 22.6337 21.1108 23.2041 20.8142C23.5064 20.6602 23.8144 20.5233 24.1282 20.3978C24.5503 20.2267 25.2576 19.8559 25.8394 19.103C26.541 18.1846 26.6437 17.232 26.6665 16.8784C26.638 16.4277 26.5524 15.8174 26.3071 15.1386C26.1132 14.5967 25.8793 14.1575 25.6626 13.8267C24.8241 15.3268 23.0045 18.0933 19.6447 20.3293C15.7488 22.9247 11.9214 23.3753 10.1816 23.4723Z" fill="#0293D6"/>
<path d="M12.3665 7.27839C12.5889 7.05023 12.8741 6.79925 13.2449 6.57108C14.2032 5.97786 15.1615 5.88659 15.6748 5.87518C15.9144 5.85807 16.2509 5.85807 16.6445 5.96074C17.2206 6.10905 17.6142 6.39996 17.831 6.57679C18.3386 6.93044 19.0003 7.32402 19.8274 7.65486C20.9911 8.1226 22.0349 8.28231 22.7935 8.33935C22.9476 8.34506 23.17 8.35647 23.4324 8.4021C23.9001 8.48766 24.944 8.67019 25.6171 9.5201C26.1419 10.1818 26.1989 10.9461 26.2046 11.3055C26.1875 11.6763 26.1361 12.1098 26.0335 12.5889C25.9308 13.0681 25.7996 13.4844 25.6627 13.8324C21.2306 11.6477 16.7985 9.46306 12.3665 7.27839H12.3665Z" fill="#EBE638"/>
<path d="M10.182 23.4722C9.69143 23.4094 8.98982 23.2725 8.20836 22.936C7.40408 22.588 6.38875 22.1545 5.78982 21.0993C5.40765 20.4262 5.3335 19.7474 5.3335 19.2911C5.3392 18.869 5.37342 18.367 5.48751 17.808C5.65293 16.9695 5.93243 16.285 6.18341 15.783C6.39446 15.2811 6.59981 14.7107 6.78234 14.0889C7.04473 13.1934 7.19874 12.372 7.29571 11.6476C7.36416 11.1627 7.45542 10.7691 7.53528 10.4896C7.7007 9.8907 7.85471 9.34881 8.2597 8.78981C8.48786 8.47038 8.72743 8.24222 8.88715 8.10532C9.26932 7.86004 9.89107 7.5235 10.7296 7.35238C11.397 7.21548 11.9731 7.23259 12.3724 7.27823C11.4654 8.56735 9.86255 11.2083 9.32066 14.9502C8.75025 18.8632 9.64579 21.9777 10.182 23.4722Z" fill="#BAD147"/>
<path d="M12.3666 7.27844C12.2753 7.27273 15.4297 7.47808 17.3633 8.15116C17.9395 8.35081 18.4642 8.57897 18.9434 8.81284C18.3216 8.77291 14.3516 8.59608 11.317 11.6478C7.51236 15.4752 8.75015 20.8086 8.8186 21.1052C8.44784 20.6317 7.88883 19.7761 7.66637 18.5783C7.5637 18.0364 7.558 17.5572 7.58081 17.1636C7.62074 16.0799 7.80898 14.631 8.3908 13.0225C9.46887 10.062 11.317 8.19109 12.3666 7.27844Z" fill="#78B650"/>
<path d="M19.9874 21.3905C20.5064 20.4608 21.4932 18.3788 21.4248 15.5952C21.3335 12.0415 19.5824 9.61156 18.9492 8.81299C19.3086 8.87003 19.8276 8.98411 20.4266 9.20657C21.7385 9.70283 22.5713 10.433 23.3243 11.106C23.9688 11.6821 24.8358 12.5663 25.6629 13.8326C25.2808 14.8365 24.7104 16.0458 23.849 17.3121C22.5485 19.2344 21.0883 20.552 19.9874 21.3905Z" fill="#2F8260"/>
<path fill-rule="evenodd" clip-rule="evenodd" d="M19.0404 8.81302C19.5994 9.08682 20.8828 9.81124 21.8354 11.3228C22.8792 12.9827 22.9021 14.6084 22.8792 15.2187C22.748 18.9207 20.2154 21.2708 19.9759 21.4761C18.2606 22.9471 16.3135 23.321 15.4465 23.4875L15.4354 23.4897C14.6824 23.6323 14.0436 23.6722 13.5816 23.6779C13.0283 23.7121 12.3951 23.7178 11.6992 23.6608C11.1801 23.6209 10.7067 23.5524 10.2732 23.4726C9.85678 22.9421 9.37193 22.2062 8.97835 21.2651C8.3566 19.7763 8.24252 18.4301 8.23682 17.5745C8.25393 16.9128 8.39653 13.6786 11.0147 11.1688C14.2832 8.03727 18.5841 8.73317 19.0404 8.81302ZM15.572 21.459C15.9199 21.459 18.1959 21.4419 19.7816 19.5938C21.0438 18.1278 21.0592 16.4316 21.0649 15.798L21.065 15.7834L21.065 15.7822C21.059 15.5535 20.9687 12.1187 18.3442 10.6897C17.1292 10.028 15.9256 10.0965 15.5777 10.1193C14.1745 10.2162 13.2162 10.8551 12.8112 11.1289C12.332 11.4597 10.1702 13.0341 10.0903 15.7891C10.0276 17.8369 11.157 19.2344 11.3623 19.4797C12.9595 21.3963 15.2468 21.4533 15.572 21.459Z" fill="#085229"/>
</svg>
