<svg width="32" height="32" viewBox="0 0 32 32" fill="none" xmlns="http://www.w3.org/2000/svg">
<path d="M31.5177 19.8705C29.3808 28.442 20.6992 33.6584 12.1267 31.521C3.55778 29.3841 -1.65868 20.702 0.479176 12.1312C2.61515 3.5587 11.2967 -1.65814 19.8666 0.478775C28.4385 2.61569 33.6546 11.2987 31.5175 19.8706L31.5176 19.8705H31.5177Z" fill="#50AF95"/>
<path fill-rule="evenodd" clip-rule="evenodd" d="M18.0246 17.8139C17.9114 17.8224 17.3269 17.8573 16.023 17.8573C14.986 17.8573 14.2496 17.8261 13.9913 17.8139C9.98353 17.6376 6.99206 16.9399 6.99206 16.1046C6.99206 15.2693 9.98353 14.5726 13.9913 14.3935V17.1191C14.2534 17.1379 15.0039 17.1822 16.0409 17.1822C17.2854 17.1822 17.9086 17.1304 18.0208 17.12V14.3953C22.0201 14.5735 25.005 15.2712 25.005 16.1046C25.005 16.938 22.021 17.6357 18.0208 17.8129L18.0246 17.8139ZM18.0246 14.1134V11.6744H23.6059V7.95508H8.4101V11.6744H13.9905V14.1124C9.4547 14.3208 6.0437 15.2193 6.0437 16.2959C6.0437 17.3726 9.4547 18.2701 13.9905 18.4794V26.2951H18.0237V18.4766C22.5491 18.2682 25.9544 17.3707 25.9544 16.295C25.9544 15.2193 22.5519 14.3217 18.0237 14.1124L18.0246 14.1134Z" fill="white"/>
</svg>
