<svg width="32" height="32" viewBox="0 0 32 32" fill="none" xmlns="http://www.w3.org/2000/svg">
<path fill-rule="evenodd" clip-rule="evenodd" d="M16 32C7.2 32 0 24.8001 0 15.9203C0.08 7.12051 7.2 -0.0793381 16.08 0.000660272C24.88 0.0806586 32 7.20051 32 16.1603C31.92 24.8801 24.8 32 16 32Z" fill="#FC070C"/>
<path fill-rule="evenodd" clip-rule="evenodd" d="M27.3996 12.615C26.9629 12.2118 26.4567 11.7202 25.9291 11.208L25.9291 11.208L25.929 11.2079C25.188 10.4885 24.4051 9.72828 23.7141 9.11499L23.6441 9.06599C23.5276 8.97246 23.3963 8.89911 23.2556 8.84899L22.7223 8.7495C19.0425 8.06287 7.11403 5.83715 6.86866 5.867C6.79608 5.87716 6.72671 5.90347 6.66566 5.944L6.59916 5.9965C6.51727 6.07966 6.45508 6.18012 6.41716 6.2905L6.39966 6.33599V6.58449V6.62299C7.20949 8.878 9.3132 13.914 11.2556 18.5639L11.2556 18.5639L11.2557 18.564C12.8979 22.4952 14.4248 26.1504 14.9571 27.6159L14.9573 27.6165C15.0274 27.8337 15.1604 28.2459 15.4086 28.2669H15.4646C15.5976 28.2669 16.1646 27.5179 16.1646 27.5179C16.1646 27.5179 26.3006 15.226 27.3261 13.917C27.4588 13.7557 27.576 13.5823 27.6761 13.399C27.728 13.1072 27.6231 12.8096 27.3996 12.615ZM18.7655 14.0464L23.0915 10.4589L25.629 12.7969L18.7655 14.0464ZM9.63738 7.70796L17.0854 13.8119L21.6878 9.93046L9.63738 7.70796ZM17.7574 15.4115L25.3803 14.183L16.6654 24.6829L17.7574 15.4115ZM16.4621 14.967L8.62559 8.31698L15.3281 24.6899L16.4621 14.967Z" fill="white"/>
</svg>
