<svg width="32" height="32" viewBox="0 0 32 32" fill="none" xmlns="http://www.w3.org/2000/svg">
<path d="M16 32C24.8667 32 32 24.8667 32 16C32 7.13328 24.8667 0 16 0C7.13328 0 0 7.13328 0 16C0 24.8667 7.13328 32 16 32Z" fill="#2775CA"/>
<path d="M20.3998 18.5333C20.3998 16.2 18.9998 15.4 16.1998 15.0667C14.1998 14.8 13.7998 14.2667 13.7998 13.3333C13.7998 12.3999 14.4666 11.8 15.7998 11.8C16.9998 11.8 17.6666 12.2 17.9998 13.2C18.0666 13.4 18.2666 13.5333 18.4666 13.5333H19.5331C19.7998 13.5333 19.9998 13.3333 19.9998 13.0667V13C19.7331 11.5333 18.5331 10.4 16.9998 10.2667V8.66674C16.9998 8.40002 16.7998 8.20002 16.4666 8.1333H15.4666C15.1998 8.1333 14.9998 8.3333 14.9331 8.66674V10.2C12.9331 10.4667 11.6666 11.8 11.6666 13.4667C11.6666 15.6667 12.9998 16.5333 15.7998 16.8667C17.6666 17.2 18.2666 17.6 18.2666 18.6667C18.2666 19.7335 17.3331 20.4667 16.0666 20.4667C14.3331 20.4667 13.7331 19.7333 13.5331 18.7333C13.4666 18.4667 13.2666 18.3333 13.0666 18.3333H11.9331C11.6666 18.3333 11.4666 18.5333 11.4666 18.8V18.8667C11.7331 20.5333 12.7998 21.7333 14.9998 22.0667V23.6667C14.9998 23.9333 15.1998 24.1333 15.5331 24.2H16.5331C16.7998 24.2 16.9998 24 17.0666 23.6667V22.0667C19.0666 21.7333 20.3998 20.3333 20.3998 18.5333Z" fill="white"/>
<path fill-rule="evenodd" clip-rule="evenodd" d="M6.6668 12.7331C4.73336 17.8665 7.40008 23.6665 12.6001 25.5331C12.8001 25.6665 13.0001 25.9331 13.0001 26.1331V27.0665C13.0001 27.1998 13.0001 27.2665 12.9334 27.3331C12.8668 27.5998 12.6001 27.7331 12.3334 27.5998C8.60008 26.3998 5.73336 23.5331 4.53336 19.7998C2.53336 13.4665 6.00008 6.73306 12.3334 4.73306C12.4001 4.6665 12.5334 4.6665 12.6001 4.6665C12.8668 4.73306 13.0001 4.93306 13.0001 5.19978V6.13306C13.0001 6.4665 12.8668 6.6665 12.6001 6.79978C9.8668 7.79978 7.6668 9.93306 6.6668 12.7331ZM19.0669 4.99984C19.1335 4.73312 19.4002 4.59984 19.6669 4.73312C23.3335 5.93312 26.2669 8.79984 27.4669 12.5998C29.4669 18.9331 26.0002 25.6666 19.6669 27.6666C19.6002 27.7331 19.4669 27.7331 19.4002 27.7331C19.1335 27.6666 19.0002 27.4666 19.0002 27.1998V26.2666C19.0002 25.9331 19.1335 25.7331 19.4002 25.5998C22.1335 24.5998 24.3335 22.4666 25.3335 19.6666C27.2669 14.5331 24.6002 8.73312 19.4002 6.86656C19.2002 6.73312 19.0002 6.46656 19.0002 6.19984V5.26656C19.0002 5.13312 19.0002 5.06656 19.0669 4.99984Z" fill="white"/>
</svg>
