<svg width="32" height="32" viewBox="0 0 32 32" fill="none" xmlns="http://www.w3.org/2000/svg">
<path d="M31.5177 19.8705C29.3808 28.442 20.6992 33.6584 12.1267 31.521C3.55778 29.3841 -1.65868 20.702 0.479176 12.1312C2.61515 3.5587 11.2967 -1.65814 19.8666 0.478775C28.4385 2.61569 33.6546 11.2987 31.5175 19.8706L31.5176 19.8705H31.5177Z" fill="#23292F"/>
<path d="M23.8673 6.6665H27.096L20.3767 13.3195C17.9433 15.7276 13.9981 15.7276 11.563 13.3195L4.84106 6.6665H8.07246L13.1774 11.7204C14.7251 13.2457 17.2107 13.2457 18.7584 11.7204L23.8673 6.6665Z" fill="white"/>
<path d="M8.031 25.1666H4.80005L11.563 18.4725C13.9964 16.0645 17.9416 16.0645 20.3767 18.4725L27.1397 25.1666H23.9109L18.7623 20.0717C17.2147 18.5463 14.729 18.5463 13.1813 20.0717L8.031 25.1666Z" fill="white"/>
</svg>
