<svg width="32" height="32" viewBox="0 0 32 32" fill="none" xmlns="http://www.w3.org/2000/svg">
<path d="M16 32C24.8366 32 32 24.8366 32 16C32 7.16344 24.8366 0 16 0C7.16344 0 0 7.16344 0 16C0 24.8366 7.16344 32 16 32Z" fill="#D80027"/>
<path d="M8.75625 9.7373L10.1375 13.9873H14.6062L10.9937 16.6186L12.375 20.8686L8.75625 18.2436L5.1375 20.8686L6.525 16.6186L2.90625 13.9873H7.375L8.75625 9.7373Z" fill="#FFDA44"/>
<path d="M18.9684 24.7812L17.9122 23.4812L16.3497 24.0874L17.256 22.6812L16.1997 21.3749L17.8185 21.8062L18.7309 20.3999L18.8184 22.0749L20.4434 22.5062L18.8747 23.1062L18.9684 24.7812Z" fill="#FFDA44"/>
<path d="M21.0685 20.9687L21.5685 19.3687L20.1997 18.3999L21.8747 18.3749L22.3685 16.7749L22.9122 18.3624L24.5872 18.3437L23.2435 19.3437L23.781 20.9312L22.4122 19.9624L21.0685 20.9687Z" fill="#FFDA44"/>
<path d="M23.9003 11.7435L23.1628 13.2497L24.3628 14.4185L22.7065 14.181L21.969 15.681L21.6815 14.031L20.019 13.7935L21.5065 13.0122L21.219 11.356L22.419 12.5247L23.9003 11.7435Z" fill="#FFDA44"/>
<path d="M19.0126 7.18115L18.8876 8.8499L20.4439 9.48115L18.8126 9.88115L18.6939 11.5562L17.8126 10.1312L16.1814 10.5312L17.2626 9.2499L16.3751 7.83115L17.9314 8.4624L19.0126 7.18115Z" fill="#FFDA44"/>
</svg>
