<svg width="32" height="32" viewBox="0 0 32 32" fill="none" xmlns="http://www.w3.org/2000/svg">
<path d="M16 32C24.8366 32 32 24.8366 32 16C32 7.16344 24.8366 0 16 0C7.16344 0 0 7.16344 0 16C0 24.8366 7.16344 32 16 32Z" fill="#F0F0F0"/>
<path d="M21.5652 15.9998C21.5652 17.3911 19.0736 20.8693 16 20.8693C12.9264 20.8693 10.4348 17.3911 10.4348 15.9998C10.4348 12.9261 12.9264 10.4346 16 10.4346C19.0736 10.4346 21.5652 12.9261 21.5652 15.9998Z" fill="#D80027"/>
<path d="M21.5652 16C21.5652 19.0736 19.0736 21.5652 16 21.5652C12.9264 21.5652 10.4348 19.0736 10.4348 16" fill="#0052B4"/>
<path d="M21.8984 20.9194L23.3739 19.444L24.3576 20.4276L22.8821 21.9031L21.8984 20.9194Z" fill="black"/>
<path d="M19.4387 23.3784L20.9142 21.9029L21.8978 22.8866L20.4224 24.3621L19.4387 23.3784Z" fill="black"/>
<path d="M24.8499 23.8701L26.3253 22.3947L27.309 23.3783L25.8335 24.8538L24.8499 23.8701Z" fill="black"/>
<path d="M22.3899 26.3296L23.8654 24.8541L24.849 25.8378L23.3735 27.3132L22.3899 26.3296Z" fill="black"/>
<path d="M23.374 22.3945L24.8495 20.9191L25.8331 21.9027L24.3577 23.3782L23.374 22.3945Z" fill="black"/>
<path d="M20.9148 24.854L22.3903 23.3785L23.3739 24.3622L21.8985 25.8377L20.9148 24.854Z" fill="black"/>
<path d="M24.8562 11.0835L20.9216 7.14891L21.9053 6.16525L25.8399 10.0998L24.8562 11.0835Z" fill="black"/>
<path d="M20.9207 10.1001L19.4452 8.62464L20.4288 7.64102L21.9043 9.11648L20.9207 10.1001Z" fill="black"/>
<path d="M23.3796 12.5601L21.9042 11.0846L22.8878 10.101L24.3633 11.5764L23.3796 12.5601Z" fill="black"/>
<path d="M23.8716 7.14893L22.3961 5.67346L23.3798 4.6898L24.8552 6.16527L23.8716 7.14893Z" fill="black"/>
<path d="M26.332 9.60889L24.8566 8.13342L25.8402 7.14976L27.3157 8.62523L26.332 9.60889Z" fill="black"/>
<path d="M5.67212 22.3921L9.60671 26.3267L8.62305 27.3103L4.68846 23.3757L5.67212 22.3921Z" fill="black"/>
<path d="M9.60645 23.375L11.0819 24.8505L10.0983 25.8341L8.62284 24.3586L9.60645 23.375Z" fill="black"/>
<path d="M7.14722 20.916L8.62268 22.3915L7.63903 23.3751L6.16356 21.8997L7.14722 20.916Z" fill="black"/>
<path d="M8.62305 19.4404L12.5576 23.375L11.574 24.3587L7.63939 20.4241L8.62305 19.4404Z" fill="black"/>
<path d="M9.60645 5.67041L5.67186 9.605L4.6882 8.62134L8.62279 4.68675L9.60645 5.67041Z" fill="black"/>
<path d="M11.0815 7.14551L7.14696 11.0801L6.1633 10.0964L10.0979 6.16185L11.0815 7.14551Z" fill="black"/>
<path d="M12.5586 8.62207L8.62401 12.5567L7.64039 11.573L11.575 7.63846L12.5586 8.62207Z" fill="black"/>
</svg>
