<svg width="32" height="32" viewBox="0 0 32 32" fill="none" xmlns="http://www.w3.org/2000/svg">
<path d="M0 16C0 17.9571 0.352063 19.8318 0.995188 21.5652L16 22.9565L31.0048 21.5652C31.6479 19.8318 32 17.9571 32 16C32 14.0428 31.6479 12.1681 31.0048 10.4348L16 9.04346L0.995188 10.4348C0.352063 12.1681 0 14.0428 0 16H0Z" fill="#FFDA44"/>
<path d="M31.005 10.4348C28.7443 4.34206 22.8796 0 16.0002 0C9.12074 0 3.25605 4.34206 0.995361 10.4348H31.005Z" fill="#D80027"/>
<path d="M0.995361 21.5654C3.25605 27.6582 9.12074 32.0002 16.0002 32.0002C22.8796 32.0002 28.7443 27.6582 31.005 21.5654H0.995361Z" fill="#D80027"/>
</svg>
