<svg width="64" height="64" viewBox="0 0 64 64" fill="none" xmlns="http://www.w3.org/2000/svg">
<rect width="64" height="64" rx="20" fill="#2BAD70"/>
<path d="M35.8806 35.8796C34.5739 37.1863 32.7606 37.7063 31.0672 37.3996C29.9872 37.2129 28.9606 36.7063 28.1339 35.8796C27.3072 35.0529 26.8006 34.0129 26.6139 32.9463C26.3072 31.2529 26.8272 29.4396 28.1339 28.1329C29.4406 26.8263 31.2539 26.3063 32.9472 26.6129C34.0272 26.7996 35.0539 27.3063 35.8806 28.1329C36.7072 28.9596 37.2139 29.9996 37.4006 31.0662C37.6939 32.7596 37.1872 34.5729 35.8806 35.8796Z" stroke="white" stroke-width="1.5" stroke-linecap="round" stroke-linejoin="round"/>
<path d="M37.6003 42.9863C36.0536 41.1196 34.4936 39.253 32.9336 37.3996C34.0136 37.213 35.0403 36.7063 35.8669 35.8796C36.6936 35.053 37.2003 34.013 37.3869 32.9463C39.2536 34.493 41.1203 36.053 42.9736 37.613C42.4003 38.7463 41.6403 39.7996 40.7069 40.733C39.7869 41.6663 38.7336 42.413 37.6003 42.9863Z" stroke="white" stroke-width="1.5" stroke-linecap="round" stroke-linejoin="round"/>
<path d="M21.0137 26.3998C21.587 25.2665 22.347 24.2132 23.2803 23.2798C24.2137 22.3465 25.267 21.5865 26.4003 21.0132C27.947 22.8799 29.507 24.7465 31.067 26.5999C29.987 26.7865 28.9603 27.2932 28.1337 28.1198C27.307 28.9465 26.8003 29.9865 26.6137 31.0532C24.747 29.5065 22.867 27.9465 21.0137 26.3998Z" stroke="white" stroke-width="1.5" stroke-linecap="round" stroke-linejoin="round"/>
<path d="M42.9873 26.3997C41.1206 27.9464 39.2539 29.5064 37.4006 31.0664C37.2139 29.9864 36.7073 28.9597 35.8806 28.1331C35.0539 27.3064 34.0139 26.7997 32.9473 26.613C34.4939 24.7464 36.0539 22.8797 37.6139 21.0264C38.7473 21.5997 39.8006 22.3597 40.7339 23.293C41.6673 24.213 42.4139 25.2664 42.9873 26.3997Z" stroke="white" stroke-width="1.5" stroke-linecap="round" stroke-linejoin="round"/>
<path d="M26.4003 42.9864C25.267 42.4131 24.2137 41.6531 23.2803 40.7198C22.347 39.7864 21.587 38.7331 21.0137 37.5998C22.8803 36.0531 24.747 34.4931 26.6003 32.9331C26.787 34.0131 27.2937 35.0397 28.1203 35.8664C28.947 36.6931 29.987 37.1998 31.0537 37.3864C29.507 39.2531 27.947 41.1331 26.4003 42.9864Z" stroke="white" stroke-width="1.5" stroke-linecap="round" stroke-linejoin="round"/>
<path d="M32.0003 44.3332C38.8118 44.3332 44.3337 38.8113 44.3337 31.9998C44.3337 25.1883 38.8118 19.6665 32.0003 19.6665C25.1888 19.6665 19.667 25.1883 19.667 31.9998C19.667 38.8113 25.1888 44.3332 32.0003 44.3332Z" stroke="white" stroke-width="1.5" stroke-linecap="round" stroke-linejoin="round"/>
</svg>
