<svg width="64" height="64" viewBox="0 0 64 64" fill="none" xmlns="http://www.w3.org/2000/svg">
<rect width="64" height="64" rx="20" fill="#7A5AF8"/>
<path d="M43.2712 29.7471L41.4979 30.5385L41.1168 30.7143L40.0763 31.1686L32.5725 34.5102C32.382 34.5981 32.2061 34.6421 32.001 34.6714C31.6932 34.73 31.3708 34.73 31.063 34.6714C30.8578 34.6421 30.6819 34.5981 30.4914 34.5102L22.9877 31.1686L21.9472 30.7143L21.5661 30.5385L19.7928 29.7471C18.3712 29.1169 18.3712 27.5047 19.7928 26.8745L30.4914 22.1114C31.1363 21.8476 31.9277 21.8476 32.5725 22.1114L43.2712 26.8745C44.6928 27.4901 44.6928 29.1169 43.2712 29.7471Z" stroke="white" stroke-width="1.5" stroke-linecap="round" stroke-linejoin="round"/>
<path d="M40.0768 31.1685V36.7816C40.0768 37.2799 39.8423 37.7489 39.4173 38.0274C38.0397 38.9361 35.2698 40.4162 31.5326 40.4162C30.3894 40.4162 27.0186 40.2844 23.6478 38.0274C23.2374 37.7489 23.0029 37.2799 23.0029 36.7816V31.1831L30.5066 34.5247C30.6972 34.6126 30.8731 34.6566 31.0782 34.6859C31.386 34.7445 31.7084 34.7445 32.0162 34.6859C32.2214 34.6566 32.3973 34.6126 32.5878 34.5247L40.0768 31.1685Z" stroke="white" stroke-width="1.5" stroke-linecap="round" stroke-linejoin="round"/>
<path d="M44.3408 28.311V41.4865" stroke="white" stroke-width="1.5" stroke-linecap="round" stroke-linejoin="round"/>
<path d="M44.3421 38.8774C42.9059 38.8774 41.7334 40.0499 41.7334 41.4862C41.7334 42.9225 42.9059 44.0949 44.3421 44.0949C45.7784 44.0949 46.9508 42.9225 46.9508 41.4862C46.9508 40.0499 45.7784 38.8774 44.3421 38.8774Z" fill="white"/>
<path d="M44.3408 42.9956V46" stroke="white" stroke-width="1.5" stroke-linecap="round" stroke-linejoin="round"/>
</svg>
