<svg width="32" height="32" viewBox="0 0 32 32" fill="none" xmlns="http://www.w3.org/2000/svg">
<path d="M16 32C24.8366 32 32 24.8366 32 16C32 7.16344 24.8366 0 16 0C7.16344 0 0 7.16344 0 16C0 24.8366 7.16344 32 16 32Z" fill="#8392A5"/>
<path d="M20.5 10.5C20 10 18.5 9 16 9C12.3679 9 10.6902 11.2801 10.1782 14M20.5 21.5C20 22 18.5 23 16 23C12.3679 23 10.6902 20.7199 10.1782 18M10.1782 14C10.0558 14.6499 10 15.325 10 16C10 16.675 10.0558 17.3501 10.1782 18M10.1782 14H7M10.1782 14H17M10.1782 18H7H17" stroke="white" stroke-width="3"/>
</svg>
