<svg width="24" height="24" viewBox="0 0 24 24" fill="none" xmlns="http://www.w3.org/2000/svg">
<path fill-rule="evenodd" clip-rule="evenodd" d="M24 12C24 18.6274 18.6274 24 12 24C5.37258 24 0 18.6274 0 12C0 5.37258 5.37258 0 12 0C18.6274 0 24 5.37258 24 12ZM18.2457 10.2456C19.2141 10.2456 20 11.0316 20 12C20 12.7158 19.565 13.3333 18.9895 13.614C19.0176 13.7824 19.0316 13.9509 19.0316 14.1333C19.0316 16.8281 15.9018 19.0035 12.0281 19.0035C8.15443 19.0035 5.02461 16.8281 5.02461 14.1333C5.02461 13.9509 5.03864 13.7684 5.06671 13.6C4.44917 13.3193 4.02812 12.7158 4.02812 12C4.02812 11.0316 4.81408 10.2456 5.7825 10.2456C6.24566 10.2456 6.68075 10.4421 6.98952 10.7368C8.19654 9.85262 9.86671 9.30525 11.7334 9.24911L12.6176 5.06665C12.6457 4.98244 12.6878 4.91227 12.7579 4.87016C12.8281 4.82806 12.9123 4.81402 12.9965 4.82806L15.9018 5.4456C16.0983 5.02455 16.5193 4.74385 17.0106 4.74385C17.6983 4.74385 18.2597 5.30525 18.2597 5.99297C18.2597 6.68069 17.6983 7.24209 17.0106 7.24209C16.3369 7.24209 15.7895 6.70876 15.7614 6.04911L13.165 5.50174L12.365 9.24911C14.1895 9.31929 15.8457 9.88069 17.0386 10.7368C17.3474 10.4281 17.7685 10.2456 18.2457 10.2456ZM9.24917 12C8.56145 12 8.00005 12.5614 8.00005 13.2491C8.00005 13.9368 8.56145 14.4982 9.24917 14.4982C9.93689 14.4982 10.4983 13.9368 10.4983 13.2491C10.4983 12.5614 9.93689 12 9.24917 12ZM12.0141 17.4596C12.4913 17.4596 14.1193 17.4035 14.9755 16.5474C15.1018 16.421 15.1018 16.2245 15.0036 16.0842C14.8772 15.9579 14.6667 15.9579 14.5404 16.0842C13.993 16.6175 12.8562 16.814 12.0281 16.814C11.2 16.814 10.0492 16.6175 9.51584 16.0842C9.38952 15.9579 9.17899 15.9579 9.05268 16.0842C8.92636 16.2105 8.92636 16.421 9.05268 16.5474C9.89478 17.3895 11.5369 17.4596 12.0141 17.4596ZM13.5018 13.2491C13.5018 13.9368 14.0632 14.4982 14.7509 14.4982C15.4386 14.4982 16 13.9368 16 13.2491C16 12.5614 15.4386 12 14.7509 12C14.0632 12 13.5018 12.5614 13.5018 13.2491Z" fill="#7F90B4"/>
</svg>
