<svg width="83" height="20" viewBox="0 0 83 20" fill="none" xmlns="http://www.w3.org/2000/svg">
<path d="M10 20C15.5228 20 20 15.5228 20 10C20 4.47715 15.5228 0 10 0C4.47715 0 0 4.47715 0 10C0 15.5228 4.47715 20 10 20Z" fill="#FF4500"/>
<path d="M16.6701 10.0004C16.6598 9.71888 16.5683 9.44639 16.4066 9.21573C16.245 8.98508 16.02 8.80611 15.759 8.70041C15.4979 8.59471 15.2118 8.56679 14.9352 8.62001C14.6586 8.67323 14.4033 8.80532 14.2001 9.00036C13.0625 8.22708 11.7253 7.79986 10.3501 7.77036L11.0001 4.65036L13.1401 5.10036C13.1655 5.33685 13.2744 5.55652 13.4472 5.71995C13.62 5.88338 13.8454 5.97986 14.083 5.99208C14.3205 6.0043 14.5546 5.93146 14.7433 5.78663C14.9319 5.6418 15.0628 5.43446 15.1124 5.20184C15.162 4.96922 15.127 4.72654 15.0138 4.51737C14.9006 4.3082 14.7165 4.14624 14.4946 4.06055C14.2727 3.97487 14.0276 3.97107 13.8032 4.04984C13.5787 4.12862 13.3897 4.2848 13.2701 4.49036L10.8201 4.00036C10.78 3.99157 10.7386 3.99082 10.6982 3.99816C10.6579 4.00549 10.6194 4.02076 10.585 4.04309C10.5505 4.06541 10.5209 4.09434 10.4977 4.12821C10.4746 4.16207 10.4584 4.20019 10.4501 4.24036L9.71008 7.71036C8.31797 7.73135 6.96236 8.15889 5.81008 8.94036C5.65593 8.79532 5.47207 8.68552 5.27126 8.61859C5.07045 8.55166 4.85749 8.5292 4.64714 8.55275C4.43678 8.57631 4.23407 8.64532 4.05303 8.75501C3.872 8.8647 3.71699 9.01243 3.59873 9.18799C3.48047 9.36354 3.4018 9.56271 3.36816 9.77169C3.33453 9.98066 3.34673 10.1945 3.40394 10.3983C3.46114 10.602 3.56197 10.791 3.69945 10.9519C3.83692 11.1129 4.00774 11.242 4.20008 11.3304C4.18882 11.4768 4.18882 11.6239 4.20008 11.7704C4.20008 14.0104 6.81008 15.8304 10.0301 15.8304C13.2501 15.8304 15.8601 14.0104 15.8601 11.7704C15.8713 11.6239 15.8713 11.4768 15.8601 11.3304C16.1069 11.2077 16.3139 11.0177 16.4572 10.7824C16.6005 10.547 16.6743 10.2759 16.6701 10.0004ZM6.67008 11.0004C6.67008 10.8026 6.72873 10.6092 6.83861 10.4448C6.9485 10.2803 7.10468 10.1522 7.2874 10.0765C7.47013 10.0008 7.67119 9.98099 7.86517 10.0196C8.05916 10.0582 8.23734 10.1534 8.37719 10.2933C8.51704 10.4331 8.61228 10.6113 8.65087 10.8053C8.68946 10.9993 8.66965 11.2003 8.59396 11.383C8.51828 11.5658 8.3901 11.722 8.22566 11.8318C8.06121 11.9417 7.86787 12.0004 7.67008 12.0004C7.53876 12.0004 7.40873 11.9745 7.2874 11.9242C7.16608 11.874 7.05584 11.8003 6.96298 11.7075C6.87012 11.6146 6.79646 11.5044 6.7462 11.383C6.69595 11.2617 6.67008 11.1317 6.67008 11.0004ZM12.4801 13.7504C11.7706 14.285 10.8977 14.5571 10.0101 14.5204C9.12247 14.5571 8.24956 14.285 7.54008 13.7504C7.49756 13.6986 7.47583 13.6328 7.47912 13.5658C7.48241 13.4989 7.51048 13.4356 7.55787 13.3882C7.60527 13.3408 7.6686 13.3127 7.73555 13.3094C7.8025 13.3061 7.86827 13.3278 7.92008 13.3704C8.52131 13.8114 9.2552 14.0336 10.0001 14.0004C10.7459 14.0409 11.4832 13.8257 12.0901 13.3904C12.1431 13.3386 12.2145 13.3101 12.2886 13.3111C12.3253 13.3115 12.3615 13.3192 12.3952 13.3337C12.4289 13.3481 12.4595 13.3691 12.4851 13.3954C12.5107 13.4216 12.5309 13.4527 12.5445 13.4867C12.5581 13.5208 12.5649 13.5572 12.5644 13.5939C12.5639 13.6306 12.5562 13.6668 12.5418 13.7005C12.5273 13.7342 12.5063 13.7648 12.4801 13.7904V13.7504ZM12.3001 12.0404C12.1023 12.0404 11.909 11.9817 11.7445 11.8718C11.5801 11.762 11.4519 11.6058 11.3762 11.423C11.3005 11.2403 11.2807 11.0393 11.3193 10.8453C11.3579 10.6513 11.4531 10.4731 11.593 10.3333C11.7328 10.1934 11.911 10.0982 12.105 10.0596C12.299 10.021 12.5 10.0408 12.6828 10.1165C12.8655 10.1922 13.0217 10.3203 13.1316 10.4848C13.2414 10.6492 13.3001 10.8426 13.3001 11.0404C13.3055 11.1759 13.2833 11.311 13.2349 11.4377C13.1864 11.5644 13.1127 11.6798 13.0183 11.7771C12.9238 11.8744 12.8105 11.9514 12.6853 12.0036C12.5602 12.0557 12.4257 12.0818 12.2901 12.0804L12.3001 12.0404Z" fill="white"/>
<g clip-path="url(#clip0_1342_20500)">
<path d="M80.63 16.5197V7.6797H81.63C81.7687 7.69223 81.9085 7.67566 82.0404 7.63105C82.1723 7.58644 82.2935 7.51477 82.3961 7.42063C82.4987 7.32649 82.5805 7.21196 82.6363 7.08437C82.6921 6.95678 82.7206 6.81895 82.72 6.6797V6.6497C82.7367 6.51437 82.7255 6.37707 82.6871 6.24624C82.6487 6.11541 82.584 5.99381 82.4969 5.88891C82.4098 5.78401 82.3021 5.69803 82.1806 5.63626C82.059 5.57449 81.9261 5.53822 81.79 5.5297H80.63V3.8797C80.6313 3.57168 80.5169 3.2744 80.3095 3.04665C80.1021 2.81889 79.8168 2.67724 79.51 2.6497C79.1949 2.63044 78.8849 2.73615 78.6471 2.94393C78.4094 3.15171 78.2631 3.44481 78.24 3.7597V5.5497H77.24C77.1014 5.53716 76.9616 5.55373 76.8297 5.59835C76.6978 5.64296 76.5766 5.71463 76.474 5.80877C76.3714 5.9029 76.2896 6.01744 76.2338 6.14503C76.178 6.27261 76.1495 6.41045 76.15 6.5497V6.6197C76.1334 6.75503 76.1446 6.89232 76.183 7.02316C76.2214 7.15399 76.2861 7.27559 76.3732 7.38049C76.4603 7.48538 76.568 7.57136 76.6895 7.63313C76.8111 7.69491 76.944 7.73117 77.08 7.7397H78.21V16.5497C78.21 16.8653 78.3354 17.168 78.5586 17.3912C78.7818 17.6143 79.0844 17.7397 79.4 17.7397C79.7141 17.7561 80.0219 17.6475 80.2561 17.4376C80.4903 17.2277 80.632 16.9337 80.65 16.6197C80.6538 16.5851 80.6468 16.5502 80.63 16.5197Z" fill="white"/>
<path d="M73.2596 5.56031C74.4305 5.56031 75.3797 4.61116 75.3797 3.44031C75.3797 2.26947 74.4305 1.32031 73.2596 1.32031C72.0888 1.32031 71.1396 2.26947 71.1396 3.44031C71.1396 4.61116 72.0888 5.56031 73.2596 5.56031Z" fill="#FF4500"/>
<path d="M74.4396 7.81012C74.4396 7.49451 74.3142 7.19183 74.091 6.96866C73.8679 6.74549 73.5652 6.62012 73.2496 6.62012C72.934 6.62012 72.6313 6.74549 72.4081 6.96866C72.1849 7.19183 72.0596 7.49451 72.0596 7.81012V16.5201C72.0596 16.8357 72.1849 17.1384 72.4081 17.3616C72.6313 17.5847 72.934 17.7101 73.2496 17.7101C73.5652 17.7101 73.8679 17.5847 74.091 17.3616C74.3142 17.1384 74.4396 16.8357 74.4396 16.5201V7.81012Z" fill="white"/>
<path d="M56.8395 1.19C56.8395 0.874392 56.7142 0.571711 56.491 0.348543C56.2678 0.125375 55.9651 0 55.6495 0C55.3339 0 55.0312 0.125375 54.8081 0.348543C54.5849 0.571711 54.4595 0.874392 54.4595 1.19V6.51C54.0673 6.11587 53.5992 5.80543 53.0836 5.59744C52.5679 5.38946 52.0154 5.28827 51.4595 5.3C48.3595 5.3 45.7695 8.15 45.7695 11.65C45.7695 15.15 48.2795 18 51.4195 18C51.9924 18.014 52.5622 17.9123 53.0949 17.701C53.6276 17.4896 54.1121 17.173 54.5195 16.77C54.5619 16.92 54.6339 17.0601 54.7312 17.1819C54.8285 17.3037 54.9492 17.4049 55.0861 17.4794C55.2231 17.554 55.3736 17.6004 55.5287 17.6159C55.6838 17.6315 55.8405 17.6159 55.9895 17.57C56.2202 17.5005 56.4247 17.3632 56.5763 17.176C56.7279 16.9887 56.8196 16.7601 56.8395 16.52V1.19ZM51.4095 15.64C49.5795 15.64 48.0895 13.87 48.0895 11.64C48.0895 9.41 49.5695 7.64 51.4095 7.64C53.2495 7.64 54.7195 9.42 54.7195 11.64C54.7195 13.86 53.2495 15.59 51.4195 15.59L51.4095 15.64Z" fill="white"/>
<path d="M69.2797 1.19C69.2797 0.874392 69.1544 0.571711 68.9312 0.348543C68.708 0.125375 68.4053 7.6089e-10 68.0897 7.60888e-10V7.60888e-10C67.9339 -5.59417e-06 67.7797 0.0308442 67.6358 0.0907691C67.492 0.150694 67.3615 0.238507 67.2518 0.349142C67.1421 0.459777 67.0554 0.591042 66.9967 0.735362C66.938 0.879682 66.9084 1.0342 66.9097 1.19V6.51C66.5161 6.11774 66.0478 5.80851 65.5325 5.60066C65.0171 5.39281 64.4653 5.29057 63.9097 5.3C60.8097 5.3 58.2197 8.15 58.2197 11.65C58.2197 15.15 60.7197 18 63.8597 18C64.4393 18.0195 65.0167 17.9204 65.5566 17.7089C66.0965 17.4974 66.5876 17.1779 66.9997 16.77C67.0421 16.92 67.1141 17.0601 67.2114 17.1819C67.3087 17.3037 67.4294 17.4049 67.5663 17.4794C67.7033 17.554 67.8537 17.6004 68.0089 17.6159C68.164 17.6315 68.3207 17.6159 68.4697 17.57C68.7011 17.5018 68.9064 17.3648 69.0582 17.1773C69.21 16.9898 69.3012 16.7606 69.3197 16.52L69.2797 1.19ZM63.8497 15.64C62.0197 15.64 60.5397 13.87 60.5397 11.64C60.5397 9.41 62.0097 7.64 63.8497 7.64C65.6897 7.64 67.1597 9.42 67.1597 11.64C67.1597 13.86 65.6897 15.59 63.8597 15.59L63.8497 15.64Z" fill="white"/>
<path d="M43.2696 12.4398C43.6633 12.4673 44.0519 12.3374 44.35 12.0787C44.6481 11.82 44.8314 11.4535 44.8596 11.0598V10.9098C44.8516 10.6241 44.8181 10.3396 44.7596 10.0598C44.5177 8.75885 43.8404 7.57889 42.839 6.71385C41.8377 5.8488 40.5719 5.35014 39.2496 5.2998C36.1496 5.2998 33.5596 8.1498 33.5596 11.6498C33.5596 15.1498 36.1096 17.9998 39.2496 17.9998C40.071 18.0303 40.8893 17.8815 41.6474 17.5637C42.4055 17.246 43.0853 16.7669 43.6396 16.1598C43.7488 16.0404 43.8333 15.9006 43.8884 15.7485C43.9435 15.5964 43.9681 15.4348 43.9606 15.2732C43.9532 15.1116 43.9139 14.953 43.8451 14.8065C43.7763 14.6601 43.6793 14.5287 43.5596 14.4198L43.4496 14.3298C43.205 14.1777 42.9166 14.1118 42.6303 14.1426C42.344 14.1734 42.0762 14.2992 41.8696 14.4998C41.1682 15.1894 40.2327 15.5893 39.2496 15.6198C38.4207 15.5558 37.6408 15.202 37.0465 14.6206C36.4523 14.0391 36.0816 13.2671 35.9996 12.4398H43.2696ZM39.2696 7.6798C39.9997 7.72998 40.6944 8.01375 41.2508 8.48917C41.8073 8.96458 42.196 9.60642 42.3596 10.3198H36.1396C36.3036 9.60487 36.6938 8.9619 37.2523 8.48632C37.8107 8.01074 38.5076 7.72791 39.2396 7.6798H39.2696Z" fill="white"/>
<path d="M33.6801 6.53027C33.6813 6.24669 33.5813 5.97199 33.3979 5.75565C33.2146 5.5393 32.96 5.39555 32.6801 5.35027C31.891 5.21039 31.079 5.28095 30.3258 5.55482C29.5727 5.82869 28.905 6.2962 28.3901 6.91027V6.75027C28.3628 6.4522 28.2251 6.1751 28.004 5.97333C27.7829 5.77156 27.4944 5.6597 27.1951 5.6597C26.8958 5.6597 26.6073 5.77156 26.3862 5.97333C26.1651 6.1751 26.0274 6.4522 26.0001 6.75027V16.5203C25.9963 16.83 26.1096 17.1298 26.3172 17.3596C26.5248 17.5895 26.8116 17.7326 27.1201 17.7603C27.4326 17.7795 27.7401 17.6749 27.9759 17.469C28.2118 17.2631 28.357 16.9725 28.3801 16.6603C28.3851 16.6137 28.3851 16.5668 28.3801 16.5203V11.5203C28.3531 11.0439 28.4206 10.5669 28.5786 10.1168C28.7366 9.66656 28.982 9.25205 29.3008 8.89705C29.6195 8.54204 30.0053 8.25355 30.436 8.04817C30.8666 7.84278 31.3336 7.72455 31.8101 7.70027C31.99 7.69028 32.1702 7.69028 32.3501 7.70027H32.5901C32.8855 7.67768 33.1616 7.54481 33.3635 7.32805C33.5654 7.1113 33.6784 6.82651 33.6801 6.53027Z" fill="white"/>
</g>
<defs>
<clipPath id="clip0_1342_20500">
<rect width="57" height="18" fill="white" transform="translate(26)"/>
</clipPath>
</defs>
</svg>
