<svg width="95" height="26" viewBox="0 0 95 26" fill="none" xmlns="http://www.w3.org/2000/svg">
<path fill-rule="evenodd" clip-rule="evenodd" d="M24.3285 7.87598H33.7018V9.58535H30.0162V19.1945H27.9896V9.58535H24.3203V7.87598H24.3285ZM33.3014 10.9991H35.0338V12.5807H35.0665C35.1237 12.3571 35.23 12.1414 35.3852 11.9337C35.5405 11.726 35.7285 11.5263 35.9491 11.3586C36.1698 11.1829 36.4149 11.0471 36.6846 10.9352C36.9543 10.8314 37.2321 10.7755 37.51 10.7755C37.7224 10.7755 37.8777 10.7835 37.9594 10.7915C37.9975 10.7952 38.0356 10.8006 38.0745 10.8062C38.1191 10.8126 38.1648 10.8192 38.2128 10.8234V12.5647C38.082 12.5408 37.9513 12.5248 37.8123 12.5088C37.6734 12.4929 37.5427 12.4849 37.4119 12.4849C37.1014 12.4849 36.8072 12.5488 36.5293 12.6686C36.2515 12.7884 36.0145 12.9721 35.8102 13.2038C35.6059 13.4434 35.4424 13.7309 35.3199 14.0824C35.1973 14.4339 35.1401 14.8333 35.1401 15.2886V19.1866H33.2932V10.9991H33.3014ZM44.8893 19.1945H46.7035V11.0071H44.8566V15.7598C44.8566 16.0793 44.8239 16.3749 44.7504 16.6465C44.6768 16.918 44.5624 17.1577 44.399 17.3494C44.2437 17.5491 44.0312 17.7008 43.7697 17.8207C43.5082 17.9405 43.1895 17.9964 42.7972 17.9964C42.2906 17.9964 41.8901 17.8446 41.6123 17.5491C41.3263 17.2535 41.1874 16.7423 41.1874 16.0234V10.9991H39.3405V16.1991C39.3405 17.2775 39.5856 18.0842 40.076 18.6194C40.5663 19.1546 41.3671 19.4182 42.4704 19.4182C42.9362 19.4182 43.3938 19.2904 43.8433 19.0428C44.2927 18.7952 44.6278 18.4677 44.8566 18.0523H44.8893V19.1945ZM49.8498 16.5666C49.907 17.0938 50.1113 17.4612 50.4627 17.6769C50.8223 17.8846 51.2472 17.9964 51.7457 17.9964C51.9173 17.9964 52.1134 17.9804 52.3341 17.9564C52.5547 17.9325 52.7672 17.8766 52.9552 17.8047C53.1513 17.7328 53.3065 17.621 53.4373 17.4772C53.5599 17.3334 53.6171 17.1497 53.6089 16.918C53.6007 16.6864 53.5109 16.4947 53.3474 16.3509C53.184 16.1992 52.9797 16.0873 52.7263 15.9915C52.473 15.9036 52.187 15.8237 51.8601 15.7598C51.5923 15.7075 51.3244 15.6497 51.0521 15.5911L50.8713 15.5521C50.5281 15.4803 50.193 15.3844 49.8743 15.2806C49.5556 15.1767 49.2696 15.0329 49.0162 14.8492C48.7629 14.6735 48.5586 14.4419 48.4115 14.1623C48.2562 13.8827 48.1827 13.5392 48.1827 13.1239C48.1827 12.6766 48.2971 12.3091 48.5177 12.0056C48.7384 11.7021 49.0244 11.4624 49.3595 11.2787C49.7027 11.095 50.0786 10.9672 50.4954 10.8873C50.9121 10.8154 51.3126 10.7755 51.6885 10.7755C52.1216 10.7755 52.5384 10.8234 52.9306 10.9113C53.3229 10.9991 53.6825 11.1429 54.0012 11.3506C54.3199 11.5503 54.5814 11.8139 54.7939 12.1334C55.0063 12.4529 55.1371 12.8443 55.1943 13.2996H53.2657C53.1758 12.8683 52.9797 12.5727 52.661 12.429C52.3422 12.2772 51.9745 12.2053 51.5659 12.2053C51.4352 12.2053 51.2799 12.2133 51.1001 12.2372C50.9203 12.2612 50.7569 12.3011 50.5934 12.3571C50.4382 12.413 50.3074 12.5008 50.193 12.6127C50.0868 12.7245 50.0296 12.8683 50.0296 13.052C50.0296 13.2756 50.1113 13.4514 50.2666 13.5872C50.4218 13.723 50.6261 13.8348 50.8795 13.9306C51.1328 14.0185 51.4188 14.0984 51.7457 14.1623C52.0021 14.2124 52.2636 14.2675 52.5301 14.3236H52.5302L52.7509 14.37C53.0859 14.4419 53.4128 14.5377 53.7397 14.6415C54.0665 14.7454 54.3526 14.8892 54.6059 15.0729C54.8592 15.2566 55.0635 15.4803 55.2188 15.7518C55.3741 16.0234 55.4558 16.3669 55.4558 16.7663C55.4558 17.2535 55.3414 17.6609 55.1126 18.0044C54.8838 18.3399 54.5896 18.6194 54.23 18.8271C53.8704 19.0348 53.4618 19.1945 53.0205 19.2904C52.5792 19.3862 52.1379 19.4342 51.7048 19.4342C51.1736 19.4342 50.6833 19.3783 50.2339 19.2584C49.7844 19.1386 49.3921 18.9629 49.0653 18.7313C48.7384 18.4916 48.4769 18.1961 48.2889 17.8446C48.101 17.4932 48.0029 17.0698 47.9866 16.5826H49.8498V16.5666ZM57.3436 10.9991H55.9625V12.365H57.3599V17.1976C57.3681 17.5331 57.4089 17.8366 57.4661 18.1002C57.5315 18.3638 57.6378 18.5795 57.8094 18.7552C57.9728 18.9309 58.2098 19.0667 58.504 19.1546C58.7982 19.2425 59.1905 19.2904 59.6808 19.2904C59.8851 19.2904 60.0812 19.2824 60.2773 19.2584C60.38 19.2454 60.4875 19.2346 60.5973 19.2237H60.5974C60.6885 19.2146 60.7812 19.2054 60.8739 19.1945V17.7967C60.7431 17.8286 60.6124 17.8446 60.4816 17.8526C60.3509 17.8606 60.2201 17.8606 60.0894 17.8606C59.8769 17.8606 59.7216 17.8366 59.5991 17.7887C59.4765 17.7408 59.3866 17.6689 59.3294 17.573C59.2722 17.4772 59.2313 17.3574 59.215 17.2216C59.1986 17.0778 59.1905 16.918 59.1905 16.7263V12.3491H60.8575V10.9991H59.1905V8.53896H57.3436V10.9991ZM62.1651 10.9991H63.9139V12.1094H63.9466C64.2081 11.6302 64.5677 11.2947 65.0335 11.087C65.4993 10.8793 65.9978 10.7755 66.5453 10.7755C67.2072 10.7755 67.7793 10.8873 68.2696 11.119C68.7599 11.3426 69.1685 11.6541 69.4954 12.0535C69.8223 12.4529 70.0593 12.9162 70.2227 13.4434C70.3862 13.9706 70.4679 14.5377 70.4679 15.1368C70.4679 15.6879 70.3944 16.2231 70.2473 16.7343C70.1002 17.2535 69.8795 17.7088 69.5853 18.1082C69.2911 18.5076 68.9152 18.8191 68.4576 19.0588C67.9999 19.2984 67.4688 19.4182 66.8477 19.4182C66.578 19.4182 66.3083 19.3942 66.0386 19.3463C65.769 19.2984 65.5075 19.2185 65.2623 19.1147C65.0171 19.0108 64.7802 18.875 64.5758 18.7073C64.3634 18.5395 64.1918 18.3478 64.0447 18.1322H64.012V22.2219H62.1651V10.9991ZM68.4738 14.0265C68.5719 14.378 68.6209 14.7374 68.6209 15.1048C68.6209 15.4643 68.5801 15.8157 68.5065 16.1592C68.4248 16.5027 68.2859 16.8062 68.0979 17.0778C67.91 17.3414 67.673 17.565 67.3788 17.7328C67.0846 17.9005 66.7332 17.9884 66.3083 17.9884C65.9323 17.9884 65.5973 17.9165 65.3113 17.7647C65.0252 17.621 64.7801 17.4213 64.5758 17.1657C64.3633 16.9101 64.2162 16.6065 64.11 16.2551C64.0037 15.9036 63.9547 15.5202 63.9547 15.1048C63.9547 14.2262 64.1508 13.5233 64.5431 12.9961C64.9354 12.4689 65.5237 12.2053 66.3001 12.2053C66.676 12.2053 67.0111 12.2932 67.3052 12.4529C67.5913 12.6127 67.8364 12.8283 68.0326 13.0999C68.2287 13.3715 68.3758 13.675 68.4738 14.0265ZM71.8816 7.87598H73.7285V9.58535H71.8816V7.87598ZM73.7285 10.9991H71.8816V19.1945H73.7285V10.9991ZM75.3792 7.87598H77.2261V19.1945H75.3792V7.87598ZM81.0998 19.0907C81.6229 19.3064 82.2194 19.4182 82.8895 19.4182C83.5596 19.4182 84.1562 19.3064 84.6792 19.0907C85.2022 18.875 85.6517 18.5795 86.0112 18.1961C86.3708 17.8127 86.6487 17.3574 86.8366 16.8302C87.0246 16.303 87.1226 15.7199 87.1226 15.0889C87.1226 14.4658 87.0246 13.8907 86.8366 13.3635C86.6487 12.8363 86.3708 12.381 86.0112 11.9976C85.6435 11.6222 85.2022 11.3187 84.6792 11.103C84.1562 10.8873 83.5596 10.7755 82.8895 10.7755C82.2194 10.7755 81.6229 10.8873 81.0998 11.103C80.5768 11.3187 80.1274 11.6142 79.7678 11.9976C79.4082 12.381 79.1304 12.8363 78.9424 13.3635C78.7545 13.8907 78.6564 14.4658 78.6564 15.0889C78.6564 15.7199 78.7545 16.303 78.9424 16.8302C79.1304 17.3574 79.4082 17.8127 79.7678 18.1961C80.1355 18.5715 80.5768 18.875 81.0998 19.0907ZM82.8893 17.9884C83.2979 17.9884 83.6575 17.9005 83.9599 17.7328C84.2622 17.565 84.5074 17.3414 84.7035 17.0698C84.8997 16.7982 85.0386 16.4867 85.1366 16.1432C85.2265 15.7998 85.2756 15.4483 85.2756 15.0889C85.2756 14.7374 85.2265 14.3939 85.1366 14.0425C85.0467 13.691 84.8997 13.3875 84.7035 13.1159C84.5074 12.8443 84.2622 12.6286 83.9599 12.4609C83.6575 12.2932 83.2979 12.2053 82.8893 12.2053C82.4807 12.2053 82.1212 12.2932 81.8188 12.4609C81.5164 12.6286 81.2713 12.8523 81.0751 13.1159C80.879 13.3875 80.7401 13.691 80.642 14.0425C80.5521 14.3939 80.5031 14.7374 80.5031 15.0889C80.5031 15.4483 80.5521 15.7998 80.642 16.1432C80.7319 16.4867 80.879 16.7982 81.0751 17.0698C81.2713 17.3414 81.5164 17.565 81.8188 17.7328C82.1212 17.9085 82.4807 17.9884 82.8893 17.9884ZM89.0594 10.9991H87.6783V12.365H89.0758V17.1976C89.0839 17.5331 89.1248 17.8366 89.182 18.1002C89.2474 18.3638 89.3536 18.5795 89.5252 18.7552C89.6887 18.9309 89.9257 19.0667 90.2198 19.1546C90.514 19.2425 90.9063 19.2904 91.3966 19.2904C91.6009 19.2904 91.7971 19.2824 91.9932 19.2584C92.0958 19.2454 92.2034 19.2346 92.3131 19.2237C92.4043 19.2146 92.497 19.2054 92.5897 19.1945V17.7967C92.459 17.8286 92.3282 17.8446 92.1975 17.8526C92.0667 17.8606 91.936 17.8606 91.8052 17.8606C91.5928 17.8606 91.4375 17.8366 91.3149 17.7887C91.1923 17.7408 91.1024 17.6689 91.0452 17.573C90.988 17.4772 90.9472 17.3574 90.9308 17.2216C90.9145 17.0778 90.9063 16.918 90.9063 16.7263V12.3491H92.5734V10.9991H90.9063V8.53896H89.0594V10.9991Z" fill="#101828"/>
<path d="M22.1708 7.87588H13.7045L11.0895 0L8.46624 7.87588L0 7.8679L6.85634 12.7404L4.23312 20.6083L11.0895 15.7438L17.9376 20.6083L15.3226 12.7404L22.1708 7.87588Z" fill="#00B67A"/>
<path d="M15.9113 14.5214L15.323 12.7402L11.0898 15.7435L15.9113 14.5214Z" fill="#005128"/>
</svg>
